<svg width="16" height="17" viewBox="0 0 16 17" fill="none" xmlns="http://www.w3.org/2000/svg">
<path d="M12.4688 1.87793H12.4385C12.3699 1.35735 12.1247 0.880461 11.7482 0.535296C11.3717 0.190132 10.8893 0 10.39 0C9.89075 0 9.40833 0.190132 9.03183 0.535296C8.65532 0.880461 8.41016 1.35735 8.34159 1.87793H7.09472C7.02615 1.35735 6.78099 0.880461 6.40448 0.535296C6.02798 0.190132 5.54556 0 5.04628 0C4.547 0 4.06458 0.190132 3.68808 0.535296C3.31157 0.880461 3.06641 1.35735 2.99784 1.87793H2.96875C2.18168 1.87892 1.42711 2.20848 0.870568 2.79431C0.314024 3.38015 0.00094279 4.17443 0 5.00293V13.1279C0.00094279 13.9564 0.314024 14.7507 0.870568 15.3365C1.42711 15.9224 2.18168 16.2519 2.96875 16.2529H12.4688C13.2558 16.2519 14.0104 15.9224 14.5669 15.3365C15.1235 14.7507 15.4366 13.9564 15.4375 13.1279V5.00293C15.4366 4.17443 15.1235 3.38015 14.5669 2.79431C14.0104 2.20848 13.2558 1.87892 12.4688 1.87793ZM10.3906 1.25293C10.5742 1.25373 10.753 1.3142 10.9026 1.42608C11.0523 1.53795 11.1654 1.69577 11.2266 1.87793H9.55462C9.61581 1.69577 9.72896 1.53795 9.8786 1.42608C10.0282 1.3142 10.2071 1.25373 10.3906 1.25293ZM5.04688 1.25293C5.23042 1.25373 5.40925 1.3142 5.5589 1.42608C5.70854 1.53795 5.82169 1.69577 5.88287 1.87793H4.21088C4.27206 1.69577 4.38521 1.53795 4.53485 1.42608C4.6845 1.3142 4.86333 1.25373 5.04688 1.25293ZM2.96875 3.12793H3.17716C3.34512 3.50067 3.60979 3.81581 3.94062 4.03699C4.27145 4.25817 4.65496 4.37636 5.04688 4.37793C5.20435 4.37793 5.35537 4.31208 5.46672 4.19487C5.57807 4.07766 5.64062 3.91869 5.64062 3.75293C5.64062 3.58717 5.57807 3.42819 5.46672 3.31098C5.35537 3.19377 5.20435 3.12793 5.04688 3.12793H8.52091C8.68887 3.50067 8.95354 3.81581 9.28437 4.03699C9.6152 4.25817 9.99871 4.37636 10.3906 4.37793C10.5481 4.37793 10.6991 4.31208 10.8105 4.19487C10.9218 4.07766 10.9844 3.91869 10.9844 3.75293C10.9844 3.58717 10.9218 3.42819 10.8105 3.31098C10.6991 3.19377 10.5481 3.12793 10.3906 3.12793H12.4688C12.9412 3.12793 13.3942 3.32547 13.7283 3.6771C14.0623 4.02873 14.25 4.50564 14.25 5.00293H1.1875C1.1875 4.50564 1.37517 4.02873 1.70922 3.6771C2.04327 3.32547 2.49633 3.12793 2.96875 3.12793ZM14.25 13.1279C14.25 13.6252 14.0623 14.1021 13.7283 14.4538C13.3942 14.8054 12.9412 15.0029 12.4688 15.0029H2.96875C2.49633 15.0029 2.04327 14.8054 1.70922 14.4538C1.37517 14.1021 1.1875 13.6252 1.1875 13.1279V6.25293H14.25V13.1279Z" fill="#19232D"/>
<path d="M7.71875 14.3779C8.42335 14.3779 9.11212 14.158 9.69797 13.7459C10.2838 13.3339 10.7404 12.7482 11.0101 12.063C11.2797 11.3778 11.3503 10.6238 11.2128 9.89634C11.0753 9.16891 10.736 8.50073 10.2378 7.97628C9.73959 7.45183 9.10482 7.09468 8.41376 6.94999C7.7227 6.80529 7.0064 6.87955 6.35544 7.16338C5.70448 7.44721 5.14809 7.92786 4.75664 8.54454C4.36519 9.16123 4.15625 9.88625 4.15625 10.6279C4.15719 11.6222 4.53283 12.5754 5.20072 13.2785C5.86862 13.9815 6.77421 14.3769 7.71875 14.3779ZM7.71875 8.12793C8.18848 8.12793 8.64766 8.27455 9.03823 8.54926C9.4288 8.82396 9.73321 9.21441 9.91296 9.67122C10.0927 10.128 10.1398 10.6307 10.0481 11.1157C9.95648 11.6006 9.73028 12.0461 9.39813 12.3957C9.06598 12.7453 8.64279 12.9834 8.18209 13.0799C7.72138 13.1764 7.24385 13.1268 6.80988 12.9376C6.3759 12.7484 6.00498 12.428 5.74401 12.0169C5.48304 11.6057 5.34375 11.1224 5.34375 10.6279C5.34375 9.96489 5.59397 9.32901 6.03937 8.86016C6.48477 8.39132 7.08886 8.12793 7.71875 8.12793Z" fill="#19232D"/>
<path d="M7.89272 11.6948C8.0047 11.8087 8.15468 11.8717 8.31036 11.8702C8.46604 11.8688 8.61496 11.8031 8.72505 11.6872C8.83513 11.5713 8.89758 11.4146 8.89893 11.2507C8.90028 11.0868 8.84044 10.9289 8.73228 10.8111L8.3125 10.3692V9.37793C8.3125 9.21217 8.24994 9.0532 8.1386 8.93599C8.02725 8.81878 7.87622 8.75293 7.71875 8.75293C7.56128 8.75293 7.41026 8.81878 7.29891 8.93599C7.18756 9.0532 7.125 9.21217 7.125 9.37793V10.6279C7.12503 10.7937 7.18761 10.9526 7.29897 11.0698L7.89272 11.6948Z" fill="#19232D"/>
</svg>
