<svg width="63" height="63" viewBox="0 0 63 63" fill="none" xmlns="http://www.w3.org/2000/svg">
<rect width="63" height="63" rx="15" fill="#19232D"/>
<path fill-rule="evenodd" clip-rule="evenodd" d="M32.3144 32.9323H29.2985V30.9171H32.3144V32.9323ZM37.2555 32.9323H34.2397V30.9171H37.2555V32.9323ZM44.1133 32.9581V30.9438H46.0889L47.8323 31.8713V32.9581H44.1133ZM39.1808 32.9323V30.9171H42.1966V32.9323H39.1808ZM26.7123 27.3295L38.2725 27.3304L32.5798 23.0289H25.2026L26.7123 27.3295ZM27.4259 46.7681L39.1967 38.3146L51.7139 38.3041C53.4793 38.3041 55.4399 37.535 55.6544 35.5664C55.7142 35.0253 55.612 34.4636 55.3631 33.9323C54.9055 32.9582 53.92 32.0632 52.5038 31.624C51.4462 31.2965 50.7059 30.7695 50.0046 30.2689C48.7241 29.3555 47.5424 28.5125 45.0819 28.5177L25.3102 28.5173L18.8977 21.3999L11.6701 21.1031L17.9745 34.5584C20.3848 35.8362 22.9255 36.8014 25.3366 38.0484L17.2319 46.7675L27.4259 46.7681Z" fill="white"/>
</svg>
