<svg width="63" height="63" viewBox="0 0 63 63" fill="none" xmlns="http://www.w3.org/2000/svg">
<rect width="63" height="63" rx="15" fill="#19232D"/>
<path d="M26.7002 15.9599H14.1002C12.7803 15.9599 11.7003 17.04 11.7003 18.3599V21.6598C11.7003 22.1399 12.1203 22.5598 12.6002 22.5598L26.7002 22.5601L26.7002 15.9599Z" fill="white"/>
<path d="M48.8997 15.9599H36.2998V22.5601H50.3998C50.88 22.5601 51.2998 22.14 51.2998 21.6601V18.3602C51.2998 17.04 50.2197 15.9599 48.8997 15.9599Z" fill="white"/>
<path d="M27.9001 35.4003V48.8402H35.0999V35.4003L31.5 37.5603L27.9001 35.4003Z" fill="white"/>
<path d="M35.0999 29.3997V15.9598H27.9001V29.3997L31.5 27.2397L35.0999 29.3997Z" fill="white"/>
<path d="M36.2998 31.5002L31.4998 28.6201L26.6997 31.5002V23.7001H13.7996V46.4403C13.7996 47.7603 14.8797 48.8403 16.1996 48.8403H26.6998V33.2999L31.4998 36.18L36.2999 33.2999V48.8396H46.7396C48.0595 48.8396 49.1396 47.7595 49.1396 46.4396V23.7599H36.2999L36.2998 31.5002ZM18.9001 38.1001C18.9001 38.4601 18.6601 38.7 18.3001 38.7C17.9401 38.7 17.7002 38.4601 17.7002 38.1001V33.9C17.7002 33.54 17.9401 33.3001 18.3001 33.3001C18.6601 33.3001 18.9001 33.54 18.9001 33.9V38.1001ZM18.9001 30.8402C18.9001 31.2002 18.6601 31.4401 18.3001 31.4401C17.9401 31.4401 17.7002 31.2002 17.7002 30.8402V28.4402C17.7002 28.0802 17.9401 27.8403 18.3001 27.8403C18.6601 27.8403 18.9001 28.0802 18.9001 28.4402V30.8402Z" fill="white"/>
</svg>
