<svg width="63" height="63" viewBox="0 0 63 63" fill="none" xmlns="http://www.w3.org/2000/svg">
<rect width="63" height="63" rx="15" fill="#19232D"/>
<path fill-rule="evenodd" clip-rule="evenodd" d="M31.6254 22.503C33.8204 22.7836 35.6474 24.5292 36.404 26.9025L57.7394 29.6593L59 32.2337L50.4378 32.1705V34.1652C50.6731 33.8071 51.3568 33.9011 51.3568 34.4471V35.9189C51.3568 36.5789 50.3587 36.5789 50.3587 35.9189V35.4586H49.9903V35.9189C49.9903 36.5789 48.9922 36.5789 48.9922 35.9189V34.4471C48.9922 33.9011 49.6753 33.8071 49.9112 34.1652V32.1665L36.3083 32.0665C35.4559 34.4227 33.5291 36.0983 31.2622 36.2189V37.4502C31.4982 37.0914 32.1813 37.1861 32.1813 37.7326V39.2032C32.1813 39.8632 31.1831 39.8632 31.1831 39.2032V38.7436H30.8163V39.2032C30.8163 39.8632 29.8181 39.8632 29.8181 39.2032V37.7326C29.8181 37.1861 30.5012 37.0914 30.7371 37.4502V36.2189C28.4703 36.0983 26.5435 34.4224 25.691 32.0665L12.0882 32.1665V34.1652C12.3241 33.8071 13.0072 33.9011 13.0072 34.4471V35.9189C13.0072 36.5789 12.0091 36.5789 12.0091 35.9189V35.4586H11.6413V35.9189C11.6413 36.5789 10.6432 36.5789 10.6432 35.9189V34.4471C10.6432 33.9011 11.3269 33.8071 11.5622 34.1652V32.1705L3 32.2337L4.26061 29.6593L25.596 26.9025C26.3526 24.5292 28.1797 22.7836 30.3746 22.503L30.874 14H31.1233L31.6233 22.503H31.6254ZM31.1329 24.8091V26.8841C32.1747 26.9076 33.216 27.1551 34.2578 27.6188V25.5173C33.216 25.0638 32.1747 24.8279 31.1329 24.8095V24.8091ZM30.8676 26.8835V24.8091C29.8263 24.8291 28.7852 25.0635 27.7439 25.5169V27.6185C28.7852 27.1404 29.8263 26.8982 30.8676 26.8832V26.8835Z" fill="white"/>
<path d="M16.9362 32.2715C17.5424 32.2715 18.0349 32.764 18.0349 33.3702C18.0349 33.9758 17.5424 34.4683 16.9362 34.4683C16.33 34.4683 15.8375 33.9758 15.8375 33.3702C15.8375 32.764 16.33 32.2715 16.9362 32.2715ZM16.9362 32.4465C16.4259 32.4465 16.0121 32.8593 16.0121 33.3706C16.0121 33.8809 16.4259 34.2937 16.9362 34.2937C17.4465 34.2937 17.8602 33.8808 17.8602 33.3706C17.8602 32.8596 17.4465 32.4465 16.9362 32.4465Z" fill="white"/>
<path fill-rule="evenodd" clip-rule="evenodd" d="M17.4786 33.3699C17.4786 33.6699 17.2355 33.913 16.9358 33.913C16.6358 33.913 16.3927 33.6699 16.3927 33.3699C16.3927 33.0699 16.6358 32.8268 16.9358 32.8268C17.2355 32.8268 17.4786 33.0699 17.4786 33.3699Z" fill="white"/>
<path d="M20.3457 32.2715C21.1235 32.2715 21.7553 32.9034 21.7553 33.6811C21.7553 34.4589 21.1235 35.0908 20.3457 35.0908C19.5679 35.0908 18.9361 34.4589 18.9361 33.6811C18.9361 32.9034 19.5679 32.2715 20.3457 32.2715ZM20.3457 32.4959C19.6907 32.4959 19.1604 33.0262 19.1604 33.6811C19.1604 34.3361 19.6907 34.8664 20.3457 34.8664C21.0006 34.8664 21.5309 34.3361 21.5309 33.6811C21.5309 33.0262 21.0006 32.4959 20.3457 32.4959Z" fill="white"/>
<path fill-rule="evenodd" clip-rule="evenodd" d="M21.0433 33.6811C21.0433 34.0657 20.7311 34.3779 20.3464 34.3779C19.9617 34.3779 19.6496 34.0657 19.6496 33.6811C19.6496 33.2964 19.9617 32.9842 20.3464 32.9842C20.7311 32.9842 21.0433 33.2964 21.0433 33.6811Z" fill="white"/>
<path d="M45.0666 32.2715C44.4604 32.2715 43.9679 32.764 43.9679 33.3702C43.9679 33.9758 44.4604 34.4683 45.0666 34.4683C45.6728 34.4683 46.1653 33.9758 46.1653 33.3702C46.1653 32.764 45.6728 32.2715 45.0666 32.2715ZM45.0666 32.4465C45.5769 32.4465 45.9897 32.8593 45.9897 33.3706C45.9897 33.8809 45.5769 34.2937 45.0666 34.2937C44.5557 34.2937 44.1426 33.8808 44.1426 33.3706C44.1426 32.8596 44.5554 32.4465 45.0666 32.4465Z" fill="white"/>
<path fill-rule="evenodd" clip-rule="evenodd" d="M45.6098 33.3699C45.6098 33.6699 45.3667 33.913 45.0667 33.913C44.767 33.913 44.5239 33.6699 44.5239 33.3699C44.5239 33.0699 44.767 32.8268 45.0667 32.8268C45.3667 32.8268 45.6098 33.0699 45.6098 33.3699Z" fill="white"/>
<path d="M41.6571 32.2715C40.8793 32.2715 40.2468 32.9034 40.2468 33.6811C40.2468 34.4589 40.8793 35.0908 41.6571 35.0908C42.4349 35.0908 43.0667 34.4589 43.0667 33.6811C43.0667 32.9034 42.4349 32.2715 41.6571 32.2715ZM41.6571 32.4959C42.3121 32.4959 42.8418 33.0262 42.8418 33.6811C42.8418 34.3361 42.3115 34.8664 41.6571 34.8664C41.0021 34.8664 40.4719 34.3361 40.4719 33.6811C40.4719 33.0262 41.0022 32.4959 41.6571 32.4959Z" fill="white"/>
<path fill-rule="evenodd" clip-rule="evenodd" d="M42.3531 33.6811C42.3531 34.0657 42.0412 34.3779 41.6562 34.3779C41.2715 34.3779 40.9597 34.0657 40.9597 33.6811C40.9597 33.2964 41.2715 32.9842 41.6562 32.9842C42.0412 32.9842 42.3531 33.2964 42.3531 33.6811Z" fill="white"/>
</svg>
