<svg width="204" height="102" viewBox="0 0 204 102" fill="none" xmlns="http://www.w3.org/2000/svg">
<g clip-path="url(#clip0_9_3)">
<path d="M203.65 0C193.07 2.7 184.79 7.21 177.92 14.26C168.92 23.55 159.92 32.93 150.81 42.17C138.67 54.49 126.43 66.71 114.81 78.45C115.821 78.517 116.836 78.4088 117.81 78.13C131.81 72.88 145.89 67.8 159.69 62.05C163.27 60.56 166.46 57.3 168.91 54.15C172.98 48.91 176.34 43.15 179.91 37.51C187.61 25.35 195.31 13.15 203.65 0Z" fill="#F40116"/>
<path d="M203.65 0C195.31 13.15 187.65 25.35 179.86 37.51C176.28 43.12 172.92 48.91 168.86 54.15C166.41 57.3 163.22 60.56 159.64 62.05C145.84 67.8 131.76 72.88 117.76 78.13C116.786 78.4088 115.771 78.517 114.76 78.45C126.43 66.71 138.67 54.45 150.81 42.17C159.91 32.93 168.87 23.55 177.92 14.26C184.79 7.21 193.07 2.7 203.65 0Z" fill="#F40116"/>
<path d="M0 100.69V76.36H10.79C12.482 76.2794 14.1749 76.4995 15.79 77.01C16.9272 77.4545 17.8793 78.2727 18.49 79.33C19.1626 80.4346 19.5093 81.7069 19.49 83C19.5102 83.8015 19.3723 84.5991 19.084 85.3472C18.7957 86.0954 18.3628 86.7793 17.81 87.36C16.3944 88.6862 14.5651 89.4843 12.63 89.62C13.3295 89.9318 13.9823 90.339 14.57 90.83C15.5926 91.7962 16.4927 92.8843 17.25 94.07L21.48 100.69H17.4L14.18 95.63C13.24 94.17 12.46 93.05 11.85 92.28C11.3968 91.6534 10.8466 91.1032 10.22 90.65C9.77029 90.3517 9.27324 90.132 8.75 90C8.17073 89.9148 7.58537 89.878 7 89.89H3.22V100.69H0ZM3.22 87.1H10.14C11.3109 87.1408 12.4804 86.9853 13.6 86.64C14.3763 86.3797 15.0421 85.8654 15.49 85.18C15.9131 84.5316 16.1389 83.7743 16.14 83C16.154 82.4628 16.0481 81.9292 15.8302 81.438C15.6122 80.9467 15.2877 80.5102 14.88 80.16C13.7272 79.3135 12.3042 78.9186 10.88 79.05H3.22V87.1Z" fill="white"/>
<path d="M36.19 95L39.28 95.38C38.8783 97.0465 37.9228 98.5272 36.57 99.58C35.1116 100.611 33.3549 101.135 31.57 101.07C30.4368 101.127 29.3042 100.945 28.2462 100.535C27.1882 100.125 26.2286 99.4961 25.43 98.69C23.8139 96.8489 22.9876 94.4456 23.13 92C22.9715 89.4873 23.7923 87.0108 25.42 85.09C26.176 84.2783 27.0976 83.6385 28.1225 83.2141C29.1473 82.7896 30.2514 82.5904 31.36 82.63C32.4396 82.5961 33.5139 82.7936 34.5109 83.2093C35.5078 83.625 36.4043 84.2492 37.14 85.04C38.7316 86.9274 39.5339 89.3559 39.38 91.82C39.38 91.99 39.38 92.26 39.38 92.61H26.21C26.2032 94.2442 26.7895 95.8253 27.86 97.06C28.3294 97.5632 28.9 97.9615 29.5342 98.2286C30.1684 98.4958 30.852 98.6257 31.54 98.61C32.5471 98.6384 33.5352 98.3324 34.35 97.74C35.2201 97.0281 35.8603 96.0748 36.19 95ZM26.38 90.16H36.22C36.1916 88.9624 35.8011 87.8014 35.1 86.83C34.6566 86.2754 34.0911 85.8307 33.4475 85.5306C32.804 85.2305 32.0999 85.0832 31.39 85.1C30.75 85.085 30.1137 85.1995 29.5191 85.4367C28.9245 85.6738 28.384 86.0287 27.93 86.48C26.9643 87.4731 26.4104 88.7951 26.38 90.18V90.16Z" fill="white"/>
<path d="M54.47 100.69V98.47C53.9584 99.3084 53.231 99.994 52.3637 100.455C51.4964 100.916 50.5211 101.135 49.54 101.09C48.1606 101.094 46.8108 100.691 45.66 99.93C44.4572 99.1281 43.507 98.001 42.92 96.68C42.2402 95.1757 41.8988 93.5406 41.92 91.89C41.9013 90.2547 42.2002 88.6314 42.8 87.11C43.3155 85.7623 44.2383 84.6088 45.44 83.81C46.6115 83.0471 47.9821 82.6471 49.38 82.66C50.3255 82.6459 51.2606 82.8593 52.1064 83.2822C52.9522 83.7051 53.6839 84.3251 54.24 85.09V76.36H57.24V100.69H54.47ZM45 91.89C44.861 93.7115 45.3751 95.523 46.45 97C46.848 97.5168 47.3581 97.9365 47.9418 98.2275C48.5256 98.5185 49.1678 98.6732 49.82 98.68C50.4667 98.6739 51.1033 98.5192 51.6807 98.2279C52.2581 97.9366 52.7608 97.5165 53.15 97C54.1708 95.5834 54.6562 93.8507 54.52 92.11C54.52 89.7033 54.0533 87.9333 53.12 86.8C52.7195 86.2705 52.2008 85.842 51.6053 85.5485C51.0097 85.2551 50.3539 85.1049 49.69 85.11C49.0463 85.1034 48.41 85.2473 47.8318 85.5303C47.2536 85.8133 46.7496 86.2276 46.36 86.74C45.4533 87.84 45 89.5567 45 91.89Z" fill="white"/>
<path d="M93.64 100.69H88.3L86.18 95.18H76.44L74.44 100.69H69.22L78.7 76.36H83.91L93.64 100.69ZM84.64 91.06L81.28 82.06L77.99 91.06H84.64Z" fill="white"/>
<path d="M101.06 100.69L94 83.06H98.89L102.21 92.06L103.21 95.06L103.69 93.55C103.84 93.05 104.01 92.55 104.19 92.05L107.54 83.05H112.34L105.34 100.68L101.06 100.69Z" fill="white"/>
<path d="M115 100.69V83.06H119.66V100.69H115Z" fill="white"/>
<path d="M128 88.43L123.77 87.64C124.597 84.3067 127.127 82.64 131.36 82.64C133.002 82.5427 134.645 82.8126 136.17 83.43C137.069 83.825 137.811 84.5074 138.28 85.37C138.726 86.6193 138.913 87.9462 138.83 89.27L138.77 94.67C138.64 96.7259 139.004 98.783 139.83 100.67H135.2C135.069 100.345 134.962 100.011 134.88 99.67L134.6 98.75C133.881 99.4947 133.021 100.089 132.07 100.5C131.142 100.887 130.146 101.084 129.14 101.08C127.594 101.152 126.078 100.634 124.9 99.63C124.368 99.1584 123.947 98.575 123.667 97.9214C123.387 97.2679 123.255 96.5605 123.28 95.85C123.233 95.1615 123.347 94.4715 123.612 93.8346C123.878 93.1977 124.288 92.6312 124.81 92.18C126.274 91.1785 127.952 90.5345 129.71 90.3C131.253 90.0606 132.77 89.6755 134.24 89.15V88.68C134.295 87.9988 134.079 87.3235 133.64 86.8C132.879 86.2895 131.959 86.0727 131.05 86.19C130.357 86.1342 129.668 86.33 129.107 86.7414C128.547 87.1528 128.154 87.7523 128 88.43ZM134.25 92.22C133.343 92.5121 132.417 92.746 131.48 92.92C130.508 93.0873 129.574 93.4259 128.72 93.92C128.488 94.0893 128.302 94.3127 128.176 94.5707C128.051 94.8286 127.99 95.1133 128 95.4C128.005 95.7309 128.077 96.0574 128.211 96.36C128.345 96.6626 128.538 96.935 128.78 97.1609C129.022 97.3869 129.307 97.5617 129.618 97.6749C129.929 97.7882 130.26 97.8375 130.59 97.82C131.398 97.8272 132.187 97.5749 132.84 97.1C133.379 96.7386 133.786 96.2123 134 95.6C134.179 94.7962 134.253 93.9727 134.22 93.15L134.25 92.22Z" fill="white"/>
<path d="M151.41 83.06V86.78H148.22V93.9C148.164 94.8452 148.235 95.7935 148.43 96.72C148.56 97.07 148.93 97.24 149.51 97.24C150.158 97.197 150.793 97.0448 151.39 96.79L151.8 100.41C150.631 100.895 149.375 101.133 148.11 101.11C147.106 101.159 146.111 100.908 145.25 100.39C144.579 99.9682 144.087 99.3127 143.87 98.55C143.604 97.2105 143.497 95.8445 143.55 94.48V86.78H141.41V83.06H143.55V79.56L148.22 76.84V83.06H151.41Z" fill="white"/>
<path d="M154.58 80.67V76.36H159.24V80.67H154.58ZM154.58 100.67V83.06H159.24V100.69L154.58 100.67Z" fill="white"/>
<path d="M162.89 91.63C162.866 90.4597 163.074 89.2962 163.501 88.2064C163.928 87.1166 164.567 86.1221 165.38 85.28C166.233 84.3957 167.264 83.7037 168.406 83.2501C169.548 82.7966 170.773 82.592 172 82.65C173.237 82.5912 174.473 82.8033 175.619 83.2714C176.766 83.7394 177.797 84.4523 178.64 85.36C180.231 87.1515 181.109 89.4642 181.109 91.86C181.109 94.2558 180.231 96.5685 178.64 98.36C177.803 99.2729 176.778 99.992 175.634 100.467C174.491 100.942 173.257 101.161 172.02 101.11C169.642 101.172 167.33 100.32 165.56 98.73C163.77 97.14 162.89 94.78 162.89 91.63ZM167.68 91.88C167.591 93.3153 168.02 94.7347 168.89 95.88C169.266 96.3392 169.741 96.7066 170.28 96.9544C170.819 97.2022 171.407 97.3238 172 97.31C172.583 97.3144 173.16 97.1914 173.69 96.9495C174.22 96.7077 174.691 96.3529 175.07 95.91C175.87 94.7319 176.303 93.3431 176.313 91.9191C176.324 90.4951 175.912 89.0999 175.13 87.91C174.76 87.4379 174.283 87.0597 173.739 86.8061C173.196 86.5524 172.6 86.4304 172 86.45C171.403 86.4355 170.812 86.5588 170.27 86.8103C169.729 87.0618 169.254 87.4347 168.88 87.9C168.019 89.0413 167.593 90.4527 167.68 91.88Z" fill="white"/>
<path d="M200.78 100.69H196.11V91.69C196.142 90.5833 196.079 89.4758 195.92 88.38C195.818 87.7735 195.503 87.2235 195.03 86.83C194.523 86.4172 193.883 86.2038 193.23 86.23C192.422 86.2312 191.637 86.5022 191 87C190.361 87.4681 189.911 88.149 189.73 88.92C189.497 90.176 189.4 91.4533 189.44 92.73V100.73H184.78V83.06H189.11V85.64C189.8 84.7063 190.692 83.9406 191.72 83.4C192.714 82.8943 193.815 82.637 194.93 82.65C196.14 82.6089 197.337 82.9142 198.38 83.53C199.254 84.0416 199.933 84.8297 200.31 85.77C200.716 87.0625 200.892 88.4165 200.83 89.77L200.78 100.69Z" fill="white"/>
</g>
<defs>
<clipPath id="clip0_9_3">
<rect width="203.65" height="101.11" fill="white"/>
</clipPath>
</defs>
</svg>
